<?xml version="1.0" encoding="UTF-8"?>
<svg width="512px" height="512px" viewBox="0 0 512 512" version="1.1" xmlns="http://www.w3.org/2000/svg" xmlns:xlink="http://www.w3.org/1999/xlink">
    <!-- Generator: Sketch 49.2 (51160) - http://www.bohemiancoding.com/sketch -->
    <title>icon-work-sq</title>
    <desc>Created with Sketch.</desc>
    <defs></defs>
    <g id="icon-work-sq" stroke="none" stroke-width="1" fill="none" fill-rule="evenodd">
        <path d="M165.818359,439.505859 L165.818359,440.53125 L142.029297,440.53125 L124.050781,404.984375 L109.216797,404.984375 L109.216797,440.53125 L87,440.53125 L87,341 L125.076172,341 C132.73246,341 139.35186,342.150705 144.93457,344.452148 C150.517281,346.753592 154.801092,350.148741 157.786133,354.637695 C160.771174,359.12665 162.263672,364.606738 162.263672,371.078125 C162.263672,378.278682 160.759781,384.111957 157.751953,388.578125 C154.744126,393.044293 150.391956,396.576159 144.695312,399.173828 L165.818359,439.505859 Z M109.216797,387.074219 L125.076172,387.074219 C129.952498,387.074219 133.666654,385.832369 136.21875,383.348633 C138.770846,380.864896 140.046875,377.435569 140.046875,373.060547 C140.046875,368.594379 138.782239,365.119479 136.25293,362.635742 C133.72362,360.152006 129.998071,358.910156 125.076172,358.910156 L109.216797,358.910156 L109.216797,387.074219 Z" id="R" fill="#000000"></path>
        <path d="M428.859375,128.251953 C428.859375,138.232472 427.04787,146.914026 423.424805,154.296875 C419.80174,161.679724 414.75459,167.353496 408.283203,171.318359 C401.811817,175.283223 394.383505,177.265625 385.998047,177.265625 C377.567015,177.265625 370.104525,175.283223 363.610352,171.318359 C357.116178,167.353496 352.057635,161.679724 348.43457,154.296875 C344.811505,146.914026 343,138.232472 343,128.251953 L343,124.082031 C343,114.101513 344.800112,105.408566 348.400391,98.0029297 C352.000669,90.5972937 357.036426,84.9121292 363.507812,80.9472656 C369.979199,76.9824021 377.430296,75 385.861328,75 C394.246787,75 401.697884,76.9824021 408.214844,80.9472656 C414.731803,84.9121292 419.80174,90.5972937 423.424805,98.0029297 C427.04787,105.408566 428.859375,114.101513 428.859375,124.082031 L428.859375,128.251953 Z M406.369141,123.945312 C406.369141,114.010367 404.591815,106.411159 401.037109,101.147461 C397.482404,95.8837627 392.423861,93.2519531 385.861328,93.2519531 C379.207649,93.2519531 374.137713,95.8723696 370.651367,101.113281 C367.165022,106.354193 365.421875,113.964794 365.421875,123.945312 L365.421875,128.251953 C365.421875,138.186899 367.199201,145.808893 370.753906,151.118164 C374.308612,156.427435 379.389941,159.082031 385.998047,159.082031 C392.515007,159.082031 397.53937,156.416042 401.071289,151.083984 C404.603208,145.751926 406.369141,138.141325 406.369141,128.251953 L406.369141,123.945312 Z" id="O" fill="#000000"></path>
        <polygon id="K" fill="#000000" points="387.539062 402.113281 377.216797 413.324219 377.216797 440.53125 355 440.53125 355 341 377.216797 341 377.216797 385.228516 385.898438 372.71875 409.414062 341 436.689453 341 402.236328 385.228516 437.236328 440.53125 410.986328 440.53125"></polygon>
        <polygon id="W" fill="#000000" points="183.056641 75 161.455078 174.53125 138.828125 174.53125 123.994141 111.572266 109.296875 174.53125 86.6699219 174.53125 65 75 87.0117188 75 99.5214844 142.880859 114.628906 75 133.427734 75 148.603516 142.880859 161.113281 75"></polygon>
        <rect id="Rectangle-2" fill="#000000" x="0" y="247" width="512" height="20"></rect>
        <rect id="Rectangle-2" fill="#000000" transform="translate(256.000000, 257.000000) rotate(90.000000) translate(-256.000000, -257.000000) " x="0" y="247" width="512" height="20"></rect>
    </g>
</svg>