<?xml version="1.0" encoding="UTF-8"?>
<svg width="512px" height="612px" viewBox="0 0 512 612" version="1.1" xmlns="http://www.w3.org/2000/svg" xmlns:xlink="http://www.w3.org/1999/xlink">
    <!-- Generator: Sketch 49.2 (51160) - http://www.bohemiancoding.com/sketch -->
    <title>icon-victory</title>
    <desc>Created with Sketch.</desc>
    <defs></defs>
    <g id="icon-victory" stroke="none" stroke-width="1" fill="none" fill-rule="evenodd">
        <g id="hand" transform="translate(105.000000, 10.000000)" stroke="#000000" stroke-width="20">
            <path d="M293,263.776365 L293,322.224899 C293,383.393369 249.957175,451.14094 146.5,451.14094 C44.3966046,451.14094 1.13681105,385.154779 0.0221493427,324.862268 C0.00737014009,324.062855 0,323.264442 0,322.467198 C0,322.413282 0,289.615234 0,289.478663 C2.87735209e-15,253.393635 29.2927483,226.14094 65.4271845,226.14094 L87.2560172,226.14094 L130.852952,226.14094 C148.229535,226.14094 162.316039,240.208183 162.316039,257.561006 C162.316039,274.91383 148.229535,288.981073 130.852952,288.981073 L69.7818399,288.981073" id="Combined-Shape" stroke-linecap="round"></path>
            <path d="M42.527413,230.073826 L14.7162884,40.2236008 C12.2979354,21.1500048 24.286888,3.51472912 41.4943636,0.834110028 C58.7018391,-1.84650907 74.6117167,11.4426244 77.0300697,30.5162203 L98.9415774,169.394466 L120.853085,30.5162203 C123.271438,11.4426244 139.181316,-1.84650907 156.388791,0.834110028 C173.596267,3.51472912 185.585219,21.1500048 183.166867,40.2236008 L155.355742,230.073826" id="Combined-Shape" stroke-linecap="round" stroke-linejoin="round"></path>
            <rect id="Rectangle-3" x="167.147651" y="159.281879" width="62.9261745" height="130.768456" rx="31.4630872"></rect>
            <rect id="Rectangle-3-Copy" x="230.073826" y="159.281879" width="62.9261745" height="130.768456" rx="31.4630872"></rect>
        </g>
        <path d="M154.445091,522.6875 L154.445091,581.515625 C154.445091,587.10159 153.195104,591.984354 150.695091,596.164062 C148.195079,600.343771 144.757613,603.556629 140.382591,605.802734 C136.007569,608.048839 131.085744,609.171875 125.616966,609.171875 C119.913813,609.171875 114.894332,608.205088 110.558372,606.271484 C106.222413,604.337881 102.843541,601.378926 100.421654,597.394531 C97.9997666,593.410136 96.7888412,588.468779 96.7888412,582.570312 L115.245872,582.570312 C115.245872,586.867209 116.12477,589.904288 117.882591,591.681641 C119.640413,593.458993 122.218512,594.347656 125.616966,594.347656 C128.85917,594.347656 131.417738,593.214855 133.292747,590.949219 C135.167757,588.683582 136.105247,585.539083 136.105247,581.515625 L136.105247,522.6875 L154.445091,522.6875 Z" id="J" fill="#000000"></path>
        <path d="M267.165794,591.066406 L236.931419,591.066406 L231.365013,608 L211.794701,608 L243.435326,522.6875 L260.544701,522.6875 L292.361107,608 L272.732201,608 L267.165794,591.066406 Z M262.243919,576.183594 L251.990013,545.070312 L241.794701,576.183594 L262.243919,576.183594 Z" id="A" fill="#000000"></path>
        <path d="M408.585716,579.40625 C408.195089,585.265654 406.583777,590.441384 403.751732,594.933594 C400.919686,599.425804 396.964648,602.921862 391.886497,605.421875 C386.808347,607.921888 380.851375,609.171875 374.015404,609.171875 C366.71068,609.171875 360.382618,607.50197 355.031029,604.162109 C349.679439,600.822249 345.587684,596.056672 342.755638,589.865234 C339.923593,583.673797 338.507591,576.378948 338.507591,567.980469 L338.507591,562.765625 C338.507591,554.406208 339.97242,547.111359 342.902122,540.880859 C345.831825,534.650359 349.972408,529.855486 355.323997,526.496094 C360.675587,523.136702 366.925524,521.457031 374.073997,521.457031 C381.06622,521.457031 387.062254,522.746081 392.062279,525.324219 C397.062304,527.902357 400.939218,531.466774 403.693138,536.017578 C406.447058,540.568382 408.097432,545.832001 408.64431,551.808594 L390.304466,551.808594 C389.952902,546.652318 388.536901,542.814466 386.056419,540.294922 C383.575938,537.775378 379.581838,536.515625 374.073997,536.515625 C368.331781,536.515625 364.074011,538.624979 361.30056,542.84375 C358.527109,547.062521 357.140404,553.664018 357.140404,562.648438 L357.140404,567.980469 C357.140404,574.035187 357.706804,578.966778 358.839622,582.775391 C359.972441,586.584003 361.769298,589.425772 364.230247,591.300781 C366.691197,593.175791 369.952883,594.113281 374.015404,594.113281 C379.288868,594.113281 383.224375,592.912121 385.822044,590.509766 C388.419714,588.10741 389.894308,584.406275 390.245872,579.40625 L408.585716,579.40625 Z" id="C" fill="#000000"></path>
    </g>
</svg>