<?xml version="1.0" encoding="UTF-8"?>
<svg width="512px" height="612px" viewBox="0 0 512 612" version="1.1" xmlns="http://www.w3.org/2000/svg" xmlns:xlink="http://www.w3.org/1999/xlink">
    <!-- Generator: Sketch 49.2 (51160) - http://www.bohemiancoding.com/sketch -->
    <title>icon-work</title>
    <desc>Created with Sketch.</desc>
    <defs></defs>
    <g id="icon-work" stroke="none" stroke-width="1" fill="none" fill-rule="evenodd">
        <path d="M170.794338,511.974609 L170.794338,513 L147.005276,513 L129.02676,477.453125 L114.192776,477.453125 L114.192776,513 L91.9759789,513 L91.9759789,413.46875 L130.052151,413.46875 C137.708439,413.46875 144.327839,414.619455 149.910549,416.920898 C155.493259,419.222342 159.777071,422.617491 162.762112,427.106445 C165.747153,431.5954 167.239651,437.075488 167.239651,443.546875 C167.239651,450.747432 165.73576,456.580707 162.727932,461.046875 C159.720104,465.513043 155.367934,469.044909 149.671291,471.642578 L170.794338,511.974609 Z M114.192776,459.542969 L130.052151,459.542969 C134.928477,459.542969 138.642633,458.301119 141.194729,455.817383 C143.746825,453.333646 145.022854,449.904319 145.022854,445.529297 C145.022854,441.063129 143.758218,437.588229 141.228909,435.104492 C138.699599,432.620756 134.97405,431.378906 130.052151,431.378906 L114.192776,431.378906 L114.192776,459.542969 Z" id="R" fill="#000000"></path>
        <path d="M428.785549,152.353516 C428.785549,162.334034 426.974044,171.015588 423.350979,178.398438 C419.727914,185.781287 414.680764,191.455058 408.209377,195.419922 C401.737991,199.384785 394.30968,201.367188 385.924221,201.367188 C377.493189,201.367188 370.030699,199.384785 363.536526,195.419922 C357.042353,191.455058 351.983809,185.781287 348.360744,178.398438 C344.737679,171.015588 342.926174,162.334034 342.926174,152.353516 L342.926174,148.183594 C342.926174,138.203075 344.726286,129.510128 348.326565,122.104492 C351.926843,114.698856 356.9626,109.013692 363.433987,105.048828 C369.905373,101.083965 377.356471,99.1015625 385.787502,99.1015625 C394.172961,99.1015625 401.624058,101.083965 408.141018,105.048828 C414.657978,109.013692 419.727914,114.698856 423.350979,122.104492 C426.974044,129.510128 428.785549,138.203075 428.785549,148.183594 L428.785549,152.353516 Z M406.295315,148.046875 C406.295315,138.111929 404.517989,130.512722 400.963284,125.249023 C397.408578,119.985325 392.350035,117.353516 385.787502,117.353516 C379.133823,117.353516 374.063887,119.973932 370.577541,125.214844 C367.091196,130.455755 365.348049,138.066356 365.348049,148.046875 L365.348049,152.353516 C365.348049,162.288461 367.125375,169.910455 370.68008,175.219727 C374.234786,180.528998 379.316115,183.183594 385.924221,183.183594 C392.441181,183.183594 397.465545,180.517605 400.997463,175.185547 C404.529382,169.853489 406.295315,162.242888 406.295315,152.353516 L406.295315,148.046875 Z" id="O" fill="#000000"></path>
        <polygon id="K" fill="#000000" points="390.061916 474.582031 379.739651 485.792969 379.739651 513 357.522854 513 357.522854 413.46875 379.739651 413.46875 379.739651 457.697266 388.421291 445.1875 411.936916 413.46875 439.212307 413.46875 404.759182 457.697266 439.759182 513 413.509182 513"></polygon>
        <polygon id="W" fill="#000000" points="183.039062 102.46875 161.4375 202 138.810547 202 123.976562 139.041016 109.279297 202 86.6523438 202 64.9824219 102.46875 86.9941406 102.46875 99.5039062 170.349609 114.611328 102.46875 133.410156 102.46875 148.585938 170.349609 161.095703 102.46875"></polygon>
        <rect id="Rectangle-2" fill="#000000" x="0" y="290" width="512" height="20"></rect>
        <rect id="Rectangle-2" fill="#000000" transform="translate(256.000000, 306.000000) rotate(90.000000) translate(-256.000000, -306.000000) " x="-50" y="296" width="612" height="20"></rect>
    </g>
</svg>